<svg width="21" height="19" viewBox="0 0 21 19" fill="none" xmlns="http://www.w3.org/2000/svg">
<path d="M18.0838 2.50292C17.6195 2.02645 17.0683 1.64848 16.4616 1.39061C15.8549 1.13273 15.2046 1 14.5479 1C13.8912 1 13.2409 1.13273 12.6342 1.39061C12.0276 1.64848 11.4763 2.02645 11.0121 2.50292L10.0486 3.4913L9.08509 2.50292C8.14733 1.54094 6.87545 1.0005 5.54926 1.0005C4.22306 1.0005 2.95118 1.54094 2.01342 2.50292C1.07566 3.46491 0.548828 4.76964 0.548828 6.1301C0.548828 7.49055 1.07566 8.79528 2.01342 9.75727L2.97691 10.7457L10.0486 18L17.1203 10.7457L18.0838 9.75727C18.5482 9.28102 18.9167 8.71557 19.1681 8.0932C19.4194 7.47084 19.5488 6.80377 19.5488 6.1301C19.5488 5.45642 19.4194 4.78935 19.1681 4.16699C18.9167 3.54463 18.5482 2.97917 18.0838 2.50292V2.50292Z" stroke="white" stroke-linecap="round" stroke-linejoin="round"/>
</svg>
