<svg width="19" height="18" viewBox="0 0 19 18" fill="none" xmlns="http://www.w3.org/2000/svg">
<path d="M18.2854 4.24684L18.2853 4.24687L18.2896 4.25408C18.4148 4.46679 18.4867 4.70844 18.4983 4.95744C18.5099 5.20505 18.4614 5.45141 18.3577 5.67463L15.1424 12.2286C15.1423 12.2288 15.1422 12.2289 15.1421 12.2291C15.101 12.312 15.0388 12.3804 14.9637 12.4278C14.8887 12.475 14.8032 12.4998 14.7165 12.5002H5.88694H5.87821L5.86949 12.5005C5.76338 12.5042 5.65811 12.4713 5.57078 12.4054C5.48326 12.3394 5.41852 12.2437 5.38927 12.1328L5.38922 12.1326L2.68123 1.87292L2.58294 1.50052H2.19779H0.981156C0.856643 1.50052 0.735266 1.4502 0.644268 1.35746C0.552955 1.26439 0.5 1.13619 0.5 1.00055C0.5 0.864923 0.552955 0.736715 0.644268 0.643651C0.735266 0.550909 0.856643 0.500586 0.981156 0.500586H2.94347H2.95219L2.96091 0.500282C3.06702 0.496578 3.17229 0.529486 3.25962 0.595348L3.55623 0.202072L3.25962 0.595348C3.34656 0.660914 3.41102 0.75575 3.44054 0.865763L4.00883 3.12258L4.10399 3.50049H4.4937H17.0481C17.2977 3.50525 17.5424 3.57549 17.7587 3.70519C17.9762 3.83559 18.158 4.0219 18.2854 4.24684ZM6.36809 16.5C6.36809 17.0613 5.92412 17.5 5.39636 17.5C4.86859 17.5 4.42462 17.0613 4.42462 16.5C4.42462 15.9388 4.86859 15.5001 5.39636 15.5001C5.92412 15.5001 6.36809 15.9388 6.36809 16.5ZM16.1797 16.5C16.1797 17.0613 15.7357 17.5 15.2079 17.5C14.6802 17.5 14.2362 17.0613 14.2362 16.5C14.2362 15.9388 14.6802 15.5001 15.2079 15.5001C15.7357 15.5001 16.1797 15.9388 16.1797 16.5Z" stroke="white"/>
</svg>
