<svg width="23" height="21" viewBox="0 0 23 21" fill="none" xmlns="http://www.w3.org/2000/svg">
<path d="M21.9951 5.40817L21.9951 5.40821L21.9998 5.41554C22.1503 5.64686 22.2344 5.90569 22.248 6.16902C22.2616 6.43084 22.2052 6.69333 22.0815 6.93404L18.2738 13.9564C18.2736 13.9566 18.2735 13.9568 18.2734 13.9571C18.2233 14.0485 18.1435 14.131 18.0382 14.191L18.2857 14.6255L18.0382 14.191C17.9325 14.2513 17.8076 14.285 17.6776 14.2854H7.22137H7.21348L7.20559 14.2857C7.04604 14.2907 6.8932 14.2454 6.77227 14.1629C6.65194 14.0808 6.57351 13.9694 6.53953 13.8528L6.53947 13.8526L3.33264 2.86008L3.22762 2.50011H2.85265H1.4119C1.22386 2.50011 1.05086 2.43085 0.929259 2.31872C0.809022 2.20785 0.75 2.06657 0.75 1.92871C0.75 1.79085 0.809022 1.64957 0.929259 1.5387C1.05086 1.42657 1.22385 1.35732 1.4119 1.35732H3.73569H3.74358L3.75147 1.35707C3.91102 1.35203 4.06386 1.39734 4.18479 1.47986C4.30429 1.56141 4.38247 1.67178 4.41683 1.78758L5.08979 4.20556L5.19164 4.5715H5.57148H20.4398C20.7611 4.57683 21.0734 4.65863 21.3461 4.80657C21.6197 4.95497 21.842 5.16355 21.9951 5.40817ZM7.88327 18.5353C7.88327 19.1093 7.36578 19.6424 6.64043 19.6424C5.91507 19.6424 5.39758 19.1093 5.39758 18.5353C5.39758 17.9613 5.91507 17.4282 6.64043 17.4282C7.36578 17.4282 7.88327 17.9613 7.88327 18.5353ZM19.5022 18.5353C19.5022 19.1093 18.9847 19.6424 18.2594 19.6424C17.534 19.6424 17.0165 19.1093 17.0165 18.5353C17.0165 17.9613 17.534 17.4282 18.2594 17.4282C18.9847 17.4282 19.5022 17.9613 19.5022 18.5353Z" stroke="#333333"/>
</svg>
